# xmcd
#
# Track frame offsets:
# 150
# 3247
# 20385
# 36027
# 56860
# 75240
# 94622
# 107980
# 127682
# 144387
# 162090
# 180207
# 195930
# 210927
# 215675
# 233027
# 252142
# 275710
# 295370
# 311122
# 333204
#
# Disc length: 4518 seconds
#
#
# Revision: 0
# Processed by: cddbd v1.5.1PL2 Copyright (c) Steve Scherf et al.
# Submitted via: FreeRIP 2.90 
#
DISCID=1211a415
DTITLE=Pepe Moreno - Risca Faca
DYEAR=0006
DGENRE=A Cappella
TTITLE0=Abertura
TTITLE1=Risca Faca
TTITLE2=Boca do Lixo
TTITLE3=Americana quer
TTITLE4=Fica comigo
TTITLE5=O bagulho é louco
TTITLE6=Tereza
TTITLE7=Olha o xote aí
TTITLE8=Mina
TTITLE9=Pra sempre vou te amar
TTITLE10=Estou apaixonado
TTITLE11=Loirinha
TTITLE12=De pai para filho
TTITLE13=Abertura 2
TTITLE14=Risca faca versã forró
TTITLE15=Boca do lixo versão forró
TTITLE16=Reggae não fu
TTITLE17=Vem ficar comigo
TTITLE18=Locutor
TTITLE19=Estripe Forró
TTITLE20=Entrevista
EXTD=
EXTT0=
EXTT1=
EXTT2=
EXTT3=
EXTT4=
EXTT5=
EXTT6=
EXTT7=
EXTT8=
EXTT9=
EXTT10=
EXTT11=
EXTT12=
EXTT13=
EXTT14=
EXTT15=
EXTT16=
EXTT17=
EXTT18=
EXTT19=
EXTT20=
PLAYORDER=
